# Cone along Y, tip at top, 32 segments
# 34 vertices, 64 triangles
# Centered at (0,0,0), fits inside -1..1. Faces are counter-clockwise seen from outside.
v 1.000000 -1.000000 -0.000000
v 0.980785 -1.000000 -0.195090
v 0.923880 -1.000000 -0.382683
v 0.831470 -1.000000 -0.555570
v 0.707107 -1.000000 -0.707107
v 0.555570 -1.000000 -0.831470
v 0.382683 -1.000000 -0.923880
v 0.195090 -1.000000 -0.980785
v 0.000000 -1.000000 -1.000000
v -0.195090 -1.000000 -0.980785
v -0.382683 -1.000000 -0.923880
v -0.555570 -1.000000 -0.831470
v -0.707107 -1.000000 -0.707107
v -0.831470 -1.000000 -0.555570
v -0.923880 -1.000000 -0.382683
v -0.980785 -1.000000 -0.195090
v -1.000000 -1.000000 -0.000000
v -0.980785 -1.000000 0.195090
v -0.923880 -1.000000 0.382683
v -0.831470 -1.000000 0.555570
v -0.707107 -1.000000 0.707107
v -0.555570 -1.000000 0.831470
v -0.382683 -1.000000 0.923880
v -0.195090 -1.000000 0.980785
v -0.000000 -1.000000 1.000000
v 0.195090 -1.000000 0.980785
v 0.382683 -1.000000 0.923880
v 0.555570 -1.000000 0.831470
v 0.707107 -1.000000 0.707107
v 0.831470 -1.000000 0.555570
v 0.923880 -1.000000 0.382683
v 0.980785 -1.000000 0.195090
v 0.000000 1.000000 0.000000
v 0.000000 -1.000000 0.000000
f 1 2 33
f 2 3 33
f 3 4 33
f 4 5 33
f 5 6 33
f 6 7 33
f 7 8 33
f 8 9 33
f 9 10 33
f 10 11 33
f 11 12 33
f 12 13 33
f 13 14 33
f 14 15 33
f 15 16 33
f 16 17 33
f 17 18 33
f 18 19 33
f 19 20 33
f 20 21 33
f 21 22 33
f 22 23 33
f 23 24 33
f 24 25 33
f 25 26 33
f 26 27 33
f 27 28 33
f 28 29 33
f 29 30 33
f 30 31 33
f 31 32 33
f 32 1 33
f 34 2 1
f 34 3 2
f 34 4 3
f 34 5 4
f 34 6 5
f 34 7 6
f 34 8 7
f 34 9 8
f 34 10 9
f 34 11 10
f 34 12 11
f 34 13 12
f 34 14 13
f 34 15 14
f 34 16 15
f 34 17 16
f 34 18 17
f 34 19 18
f 34 20 19
f 34 21 20
f 34 22 21
f 34 23 22
f 34 24 23
f 34 25 24
f 34 26 25
f 34 27 26
f 34 28 27
f 34 29 28
f 34 30 29
f 34 31 30
f 34 32 31
f 34 1 32
