# Cylinder along Y, 32 segments
# 66 vertices, 128 triangles
# Centered at (0,0,0), fits inside -1..1. Faces are counter-clockwise seen from outside.
v 1.000000 -1.000000 -0.000000
v 0.980785 -1.000000 -0.195090
v 0.923880 -1.000000 -0.382683
v 0.831470 -1.000000 -0.555570
v 0.707107 -1.000000 -0.707107
v 0.555570 -1.000000 -0.831470
v 0.382683 -1.000000 -0.923880
v 0.195090 -1.000000 -0.980785
v 0.000000 -1.000000 -1.000000
v -0.195090 -1.000000 -0.980785
v -0.382683 -1.000000 -0.923880
v -0.555570 -1.000000 -0.831470
v -0.707107 -1.000000 -0.707107
v -0.831470 -1.000000 -0.555570
v -0.923880 -1.000000 -0.382683
v -0.980785 -1.000000 -0.195090
v -1.000000 -1.000000 -0.000000
v -0.980785 -1.000000 0.195090
v -0.923880 -1.000000 0.382683
v -0.831470 -1.000000 0.555570
v -0.707107 -1.000000 0.707107
v -0.555570 -1.000000 0.831470
v -0.382683 -1.000000 0.923880
v -0.195090 -1.000000 0.980785
v -0.000000 -1.000000 1.000000
v 0.195090 -1.000000 0.980785
v 0.382683 -1.000000 0.923880
v 0.555570 -1.000000 0.831470
v 0.707107 -1.000000 0.707107
v 0.831470 -1.000000 0.555570
v 0.923880 -1.000000 0.382683
v 0.980785 -1.000000 0.195090
v 1.000000 1.000000 -0.000000
v 0.980785 1.000000 -0.195090
v 0.923880 1.000000 -0.382683
v 0.831470 1.000000 -0.555570
v 0.707107 1.000000 -0.707107
v 0.555570 1.000000 -0.831470
v 0.382683 1.000000 -0.923880
v 0.195090 1.000000 -0.980785
v 0.000000 1.000000 -1.000000
v -0.195090 1.000000 -0.980785
v -0.382683 1.000000 -0.923880
v -0.555570 1.000000 -0.831470
v -0.707107 1.000000 -0.707107
v -0.831470 1.000000 -0.555570
v -0.923880 1.000000 -0.382683
v -0.980785 1.000000 -0.195090
v -1.000000 1.000000 -0.000000
v -0.980785 1.000000 0.195090
v -0.923880 1.000000 0.382683
v -0.831470 1.000000 0.555570
v -0.707107 1.000000 0.707107
v -0.555570 1.000000 0.831470
v -0.382683 1.000000 0.923880
v -0.195090 1.000000 0.980785
v -0.000000 1.000000 1.000000
v 0.195090 1.000000 0.980785
v 0.382683 1.000000 0.923880
v 0.555570 1.000000 0.831470
v 0.707107 1.000000 0.707107
v 0.831470 1.000000 0.555570
v 0.923880 1.000000 0.382683
v 0.980785 1.000000 0.195090
v 0.000000 1.000000 0.000000
v 0.000000 -1.000000 0.000000
f 1 2 34
f 1 34 33
f 2 3 35
f 2 35 34
f 3 4 36
f 3 36 35
f 4 5 37
f 4 37 36
f 5 6 38
f 5 38 37
f 6 7 39
f 6 39 38
f 7 8 40
f 7 40 39
f 8 9 41
f 8 41 40
f 9 10 42
f 9 42 41
f 10 11 43
f 10 43 42
f 11 12 44
f 11 44 43
f 12 13 45
f 12 45 44
f 13 14 46
f 13 46 45
f 14 15 47
f 14 47 46
f 15 16 48
f 15 48 47
f 16 17 49
f 16 49 48
f 17 18 50
f 17 50 49
f 18 19 51
f 18 51 50
f 19 20 52
f 19 52 51
f 20 21 53
f 20 53 52
f 21 22 54
f 21 54 53
f 22 23 55
f 22 55 54
f 23 24 56
f 23 56 55
f 24 25 57
f 24 57 56
f 25 26 58
f 25 58 57
f 26 27 59
f 26 59 58
f 27 28 60
f 27 60 59
f 28 29 61
f 28 61 60
f 29 30 62
f 29 62 61
f 30 31 63
f 30 63 62
f 31 32 64
f 31 64 63
f 32 1 33
f 32 33 64
f 65 33 34
f 65 34 35
f 65 35 36
f 65 36 37
f 65 37 38
f 65 38 39
f 65 39 40
f 65 40 41
f 65 41 42
f 65 42 43
f 65 43 44
f 65 44 45
f 65 45 46
f 65 46 47
f 65 47 48
f 65 48 49
f 65 49 50
f 65 50 51
f 65 51 52
f 65 52 53
f 65 53 54
f 65 54 55
f 65 55 56
f 65 56 57
f 65 57 58
f 65 58 59
f 65 59 60
f 65 60 61
f 65 61 62
f 65 62 63
f 65 63 64
f 65 64 33
f 66 2 1
f 66 3 2
f 66 4 3
f 66 5 4
f 66 6 5
f 66 7 6
f 66 8 7
f 66 9 8
f 66 10 9
f 66 11 10
f 66 12 11
f 66 13 12
f 66 14 13
f 66 15 14
f 66 16 15
f 66 17 16
f 66 18 17
f 66 19 18
f 66 20 19
f 66 21 20
f 66 22 21
f 66 23 22
f 66 24 23
f 66 25 24
f 66 26 25
f 66 27 26
f 66 28 27
f 66 29 28
f 66 30 29
f 66 31 30
f 66 32 31
f 66 1 32
